# xmcd CD database file
#
# Track frame offsets:
#	150
#	17243
#	31727
#	58876
#	82739
#	97506
#	113494
#	136951
#	154475
#	174753
#	192293
#
# Disc length: 2637 seconds
#
# Revision: 0
# Processed by: cddbd v1.4PL0 Copyright (c) Steve Scherf et al.
# Submitted via: CDex 1.50beta9
#
DISCID=780a4b0b
DTITLE=Joachim Goerke - Love and Vision
DYEAR=1997
DGENRE=New Age
TTITLE0=Dear inner child
TTITLE1=Ma - I'm coming
TTITLE2=You are the love
TTITLE3=The voice of god
TTITLE4=Again I could open my heart, I thank you
TTITLE5=Song to my little heart
TTITLE6=Beloved friends of the universe
TTITLE7=The silence of your heart
TTITLE8=We are as one
TTITLE9=A long run
TTITLE10=Dear inner child - reprise
EXTD=YEAR: 1997
EXTT0=
EXTT1=
EXTT2=
EXTT3=
EXTT4=
EXTT5=
EXTT6=
EXTT7=
EXTT8=
EXTT9=
EXTT10=
PLAYORDER=
